#ifndef _SONG_H
#define _SONG_H

// Based on <https://github.com/electricmango/Arduino-Music-Project/blob/master/Nyan_Cat/Nyan_Cat.ino>
// Original author: electricmango, 2012 - 2015
// Modified by: Jan Doležal, 2020

//notes in the melody:
char melody[] = {
	NOTE_DS5, NOTE_E5, NOTE_FS5, 0, NOTE_B5, NOTE_E5, NOTE_DS5, NOTE_E5, NOTE_FS5, NOTE_B5, NOTE_DS6, NOTE_E6, NOTE_DS6, NOTE_AS5, NOTE_B5, 0,
	NOTE_FS5, 0, NOTE_DS5, NOTE_E5, NOTE_FS5, 0, NOTE_B5, NOTE_CS6, NOTE_AS5, NOTE_B5, NOTE_CS6, NOTE_E6, NOTE_DS6, NOTE_E6, NOTE_CS6,
	NOTE_FS4, NOTE_GS4, NOTE_D4, NOTE_DS4, NOTE_FS2, NOTE_CS4, NOTE_D4, NOTE_CS4, NOTE_B3, NOTE_B3, NOTE_CS4,
	NOTE_D4, NOTE_D4, NOTE_CS4, NOTE_B3, NOTE_CS4, NOTE_DS4, NOTE_FS4, NOTE_GS4, NOTE_DS4, NOTE_FS4, NOTE_CS4, NOTE_DS4, NOTE_B3, NOTE_CS4, NOTE_B3,
	NOTE_DS4, NOTE_FS4, NOTE_GS4, NOTE_DS4, NOTE_FS4, NOTE_CS4, NOTE_DS4, NOTE_B3, NOTE_D4, NOTE_DS4, NOTE_D4, NOTE_CS4, NOTE_B3, NOTE_CS4,
	NOTE_D4, NOTE_B3, NOTE_CS4, NOTE_DS4, NOTE_FS4, NOTE_CS4, NOTE_D4, NOTE_CS4, NOTE_B3, NOTE_CS4, NOTE_B3, NOTE_CS4,
	NOTE_FS4, NOTE_GS4, NOTE_D4, NOTE_DS4, NOTE_FS2, NOTE_CS4, NOTE_D4, NOTE_CS4, NOTE_B3, NOTE_B3, NOTE_CS4,
	NOTE_D4, NOTE_D4, NOTE_CS4, NOTE_B3, NOTE_CS4, NOTE_DS4, NOTE_FS4, NOTE_GS4, NOTE_DS4, NOTE_FS4, NOTE_CS4, NOTE_DS4, NOTE_B3, NOTE_CS4, NOTE_B3,
	NOTE_DS4, NOTE_FS4, NOTE_GS4, NOTE_DS4, NOTE_FS4, NOTE_CS4, NOTE_DS4, NOTE_B3, NOTE_D4, NOTE_DS4, NOTE_D4, NOTE_CS4, NOTE_B3, NOTE_CS4,
	NOTE_D4, NOTE_B3, NOTE_CS4, NOTE_DS4, NOTE_FS4, NOTE_CS4, NOTE_D4, NOTE_CS4, NOTE_B3, NOTE_CS4, NOTE_B3, NOTE_B3,
	NOTE_B3, NOTE_FS3, NOTE_GS3, NOTE_B3, NOTE_FS3, NOTE_GS3, NOTE_B3, NOTE_CS4, NOTE_DS4, NOTE_B3, NOTE_E4, NOTE_DS4, NOTE_E4, NOTE_FS4,
	NOTE_B3, NOTE_B3, NOTE_FS3, NOTE_GS3, NOTE_B3, NOTE_FS3, NOTE_E4, NOTE_DS4, NOTE_CS4, NOTE_B3, NOTE_E3, NOTE_DS3, NOTE_E3, NOTE_FS3,
	NOTE_B3, NOTE_FS3, NOTE_GS3, NOTE_B3, NOTE_FS3, NOTE_GS3, NOTE_B3, NOTE_B3, NOTE_CS4, NOTE_DS4, NOTE_B3, NOTE_FS3, NOTE_GS3, NOTE_FS3,
	NOTE_B3, NOTE_B3, NOTE_AS3, NOTE_B3, NOTE_FS3, NOTE_GS3, NOTE_B3, NOTE_E4, NOTE_DS4, NOTE_E4, NOTE_FS4, NOTE_B3, NOTE_AS3,
	NOTE_B3, NOTE_FS3, NOTE_GS3, NOTE_B3, NOTE_FS3, NOTE_GS3, NOTE_B3, NOTE_CS4, NOTE_DS4, NOTE_B3, NOTE_E4, NOTE_DS4, NOTE_E4, NOTE_FS4,
	NOTE_B3, NOTE_B3, NOTE_FS3, NOTE_GS3, NOTE_B3, NOTE_FS3, NOTE_E4, NOTE_DS4, NOTE_CS4, NOTE_B3, NOTE_E3, NOTE_DS3, NOTE_E3, NOTE_FS3,
	NOTE_B3, NOTE_FS3, NOTE_GS3, NOTE_B3, NOTE_FS3, NOTE_GS3, NOTE_B3, NOTE_B3, NOTE_CS4, NOTE_DS4, NOTE_B3, NOTE_FS3, NOTE_GS3, NOTE_FS3,
	NOTE_B3, NOTE_B3, NOTE_AS3, NOTE_B3, NOTE_FS3, NOTE_GS3, NOTE_B3, NOTE_E4, NOTE_DS4, NOTE_E4, NOTE_FS4, NOTE_B3, NOTE_CS4,
	NOTE_FS4, NOTE_GS4, NOTE_D4, NOTE_DS4, NOTE_FS2, NOTE_CS4, NOTE_D4, NOTE_CS4, NOTE_B3, NOTE_B3, NOTE_CS4,
	NOTE_D4, NOTE_D4, NOTE_CS4, NOTE_B3, NOTE_CS4, NOTE_DS4, NOTE_FS4, NOTE_GS4, NOTE_DS4, NOTE_FS4, NOTE_CS4, NOTE_DS4, NOTE_B3, NOTE_CS4, NOTE_B3,
	NOTE_DS4, NOTE_FS4, NOTE_GS4, NOTE_DS4, NOTE_FS4, NOTE_CS4, NOTE_DS4, NOTE_B3, NOTE_D4, NOTE_DS4, NOTE_D4, NOTE_CS4, NOTE_B3, NOTE_CS4,
	NOTE_D4, NOTE_B3, NOTE_CS4, NOTE_DS4, NOTE_FS4, NOTE_CS4, NOTE_D4, NOTE_CS4, NOTE_B3, NOTE_CS4, NOTE_B3, NOTE_CS4,
	NOTE_FS4, NOTE_GS4, NOTE_D4, NOTE_DS4, NOTE_FS2, NOTE_CS4, NOTE_D4, NOTE_CS4, NOTE_B3, NOTE_B3, NOTE_CS4,
	NOTE_D4, NOTE_D4, NOTE_CS4, NOTE_B3, NOTE_CS4, NOTE_DS4, NOTE_FS4, NOTE_GS4, NOTE_DS4, NOTE_FS4, NOTE_CS4, NOTE_DS4, NOTE_B3, NOTE_CS4, NOTE_B3,
	NOTE_DS4, NOTE_FS4, NOTE_GS4, NOTE_DS4, NOTE_FS4, NOTE_CS4, NOTE_DS4, NOTE_B3, NOTE_D4, NOTE_DS4, NOTE_D4, NOTE_CS4, NOTE_B3, NOTE_CS4,
	NOTE_D4, NOTE_B3, NOTE_CS4, NOTE_DS4, NOTE_FS4, NOTE_CS4, NOTE_D4, NOTE_CS4, NOTE_B3, NOTE_CS4, NOTE_B3, NOTE_B3,
};

// note durations: 4 = quarter note, 8 = eighth note, etc
char noteDurations[] = {
	16,16,16,16,16,16,16,16,16,16,16,16,16,16,16,16,
	16,16,16,16,16,16,8,16,16,16,16,16,16,16,16,
	8,8,16,16,16,16,16,16,8,8,8,
	8,16,16,16,16,16,16,16,16,16,16,16,16,16,16,
	8,8,16,16,16,16,16,16,16,16,16,16,16,16,
	8,16,16,16,16,16,16,16,16,8,8,8,
	8,8,16,16,16,16,16,16,8,8,8,
	8,16,16,16,16,16,16,16,16,16,16,16,16,16,16,
	8,8,16,16,16,16,16,16,16,16,16,16,16,16,
	8,16,16,16,16,16,16,16,16,8,8,8,
	8,16,16,8,16,16,16,16,16,16,16,16,16,16,
	8,8,16,16,16,16,16,16,16,16,16,16,16,16,
	8,16,16,8,16,16,16,16,16,16,16,16,16,16,
	8,16,16,16,16,16,16,16,16,16,16,8,8,
	8,16,16,8,16,16,16,16,16,16,16,16,16,16,
	8,8,16,16,16,16,16,16,16,16,16,16,16,16,
	8,16,16,8,16,16,16,16,16,16,16,16,16,16,
	8,16,16,16,16,16,16,16,16,16,16,8,8,
	8,8,16,16,16,16,16,16,8,8,8,
	8,16,16,16,16,16,16,16,16,16,16,16,16,16,16,
	8,8,16,16,16,16,16,16,16,16,16,16,16,16,
	8,16,16,16,16,16,16,16,16,8,8,8,
	8,8,16,16,16,16,16,16,8,8,8,
	8
};

int _melody_length = sizeof(melody) / sizeof(melody[0]);
int _noteDurations_length = sizeof(noteDurations) / sizeof(noteDurations[0]);
int melody_length = (_melody_length < _noteDurations_length)?(_melody_length):(_noteDurations_length);

#endif // _SONG_H
